<svg id="Layer_1" data-name="Layer 1" xmlns="http://www.w3.org/2000/svg" viewBox="0 0 595.27 101.9"><defs><style>.cls-1{fill:none;}.cls-2{isolation:isolate;}.cls-3{fill:#fff;}.cls-4{fill:red;}</style></defs><g id="Artboard1"><rect class="cls-1" width="595.27" height="101.9"/><g class="cls-2"><path class="cls-3" d="M89.87,459.59v-19a32.21,32.21,0,0,0,10.38,1.87c7.34,0,11.54-3.38,11.54-10.15V380h20.06v53.4c0,18.08-11.78,28.45-29.5,28.45A33.12,33.12,0,0,1,89.87,459.59Z" transform="translate(0 -370)"/><path class="cls-3" d="M203.33,436.38H160.88c2,5.72,7,9.22,13.53,9.22a18.89,18.89,0,0,0,13.53-5.83l12.47,10.84c-6.29,6.88-15.74,11.19-26.58,11.19-19,0-33.24-13.52-33.24-31.48,0-17.49,13.65-30.78,31.72-30.78s31.48,13.29,31.48,31.48A26.94,26.94,0,0,1,203.33,436.38Zm-42.56-11.66h22.85c-1.63-5.59-6.06-9.09-11.43-9.09S162.52,419.13,160.77,424.72Z" transform="translate(0 -370)"/><path class="cls-3" d="M272.13,436.38H229.68c2,5.72,7,9.22,13.53,9.22a18.89,18.89,0,0,0,13.53-5.83l12.47,10.84c-6.29,6.88-15.74,11.19-26.58,11.19-19,0-33.24-13.52-33.24-31.48,0-17.49,13.65-30.78,31.72-30.78s31.48,13.29,31.48,31.48A26.94,26.94,0,0,1,272.13,436.38Zm-42.56-11.66h22.85c-1.63-5.59-6.06-9.09-11.43-9.09S231.32,419.13,229.57,424.72Z" transform="translate(0 -370)"/></g><g class="cls-2"><path class="cls-3" d="M303.5,418.19V437c0,4.08,2.21,6.53,7,6.53a17,17,0,0,0,7.58-2v17.61a23.58,23.58,0,0,1-11.67,2.68c-15.27,0-21.8-9.09-21.8-21.68V418.19H276.1V400.94h8.51V386.59H303.5v14.35h14.58v17.25Z" transform="translate(0 -370)"/></g><path class="cls-3" d="M327.05,436.62V400.94h18.89v33c0,5.83,3.85,9.56,9.57,9.56s9.56-3.73,9.56-9.56v-33H384v35.68c0,15.16-11.31,25.18-28.45,25.18S327.05,451.78,327.05,436.62Z" transform="translate(0 -370)"/><g class="cls-2"><path class="cls-4" d="M390.61,449a12.83,12.83,0,1,1,12.82,12.71A12.57,12.57,0,0,1,390.61,449Z" transform="translate(0 -370)"/></g><g class="cls-2"><path class="cls-3" d="M514.8,380v80.46H494.74V412.13L476.32,447.7H464.89l-18.43-35.57v48.28h-20V380h24.84l19.47,37.54L490.31,380Z" transform="translate(0 -370)"/><path class="cls-3" d="M587.68,436.38H545.23c2,5.72,7,9.22,13.53,9.22a18.89,18.89,0,0,0,13.53-5.83l12.47,10.84c-6.29,6.88-15.74,11.19-26.58,11.19-19,0-33.24-13.52-33.24-31.48,0-17.49,13.65-30.78,31.72-30.78s31.48,13.29,31.48,31.48A26.94,26.94,0,0,1,587.68,436.38Zm-42.56-11.66H568c-1.63-5.59-6.06-9.09-11.43-9.09S546.87,419.13,545.12,424.72Z" transform="translate(0 -370)"/></g><rect class="cls-4" x="8.7" y="401.36" width="81.72" height="39.17" transform="translate(-288.38 -204.89) rotate(-46.16)"/></g></svg>